<svg width="32" height="32" viewBox="0 0 1304 1578" fill="none" xmlns="http://www.w3.org/2000/svg">
<path d="M489.34 199.757H131.733C59.7003 199.757 0.768555 258.688 0.768555 330.717C0.768555 402.75 55.3531 461.682 127.386 461.682H492.401L489.34 199.753V199.757Z" fill="#008AFF"/>
<path d="M1303.36 1366.39H131.599C59.5665 1366.39 0.634778 1307.46 0.634778 1235.43V330.317C0.634778 330.317 0.241608 461.689 140.193 461.689H1112.04C1112.04 461.689 1303.36 445.22 1303.36 587.921V1366.39Z" fill="#6CBBFE"/>
<path d="M645.62 736.53C685.791 736.53 718.358 769.097 718.358 809.267C718.358 849.438 685.791 881.997 645.62 881.997C605.45 881.997 572.887 849.434 572.887 809.264C572.887 769.093 605.45 736.53 645.62 736.53ZM674.697 693.073V618.147C674.696 612.127 672.304 606.354 668.047 602.097C663.79 597.84 658.017 595.448 651.996 595.447C645.976 595.448 640.203 597.84 635.946 602.097C631.689 606.354 629.297 612.127 629.296 618.147V692.405C571.885 700.395 527.497 749.683 527.497 809.264C527.497 848.974 547.256 884.089 577.386 905.517L304.737 1486.49C284.956 1528.95 315.954 1577.59 362.801 1577.59C375.004 1577.59 386.952 1574.11 397.241 1567.55C407.53 1560.99 415.731 1551.63 420.88 1540.57L602.267 1152.97C620.717 1113.77 676.414 1113.61 695.094 1152.69L880.587 1538.2C885.819 1549.04 894.003 1558.19 904.199 1564.59C914.395 1570.99 926.189 1574.39 938.228 1574.39C985.394 1574.39 1016.35 1525.11 995.887 1482.61L717.605 902.709C745.605 881.089 763.747 847.294 763.747 809.264C763.747 754.171 725.802 707.865 674.686 694.902" fill="#008AFF"/>
<path d="M411.818 264.082H913.172V355.881H411.818V264.082Z" fill="white"/>
<path d="M840.453 345.113C821.651 345.113 806.355 329.809 806.355 311.003C806.355 292.197 821.651 276.904 840.453 276.904C859.259 276.904 874.552 292.201 874.552 311.003C874.552 329.809 859.259 345.113 840.453 345.113ZM463.543 345.113C444.738 345.113 429.445 329.809 429.445 311.003C429.445 292.197 444.738 276.904 463.543 276.904C482.349 276.904 497.642 292.201 497.642 311.003C497.642 329.809 482.345 345.113 463.543 345.113ZM852.686 139.705L920.839 21.6707C922.715 18.4132 923.221 14.5445 922.248 10.9139C921.274 7.28319 918.9 4.18706 915.646 2.30499C912.389 0.430326 908.52 -0.0757619 904.89 0.89772C901.259 1.8712 898.163 4.24478 896.281 7.49786L827.275 127.019C774.504 102.936 715.238 89.5194 652 89.5194C588.758 89.5194 529.493 102.936 476.726 127.019L407.72 7.49045C405.837 4.23636 402.74 1.86206 399.109 0.888524C395.478 -0.085011 391.608 0.421734 388.35 2.29757C385.094 4.17826 382.718 7.27508 381.744 10.9072C380.77 14.5394 381.279 18.4096 383.158 21.667L451.314 139.701C334.289 203.351 254.244 321.826 242.538 461.797H1061.46C1049.74 321.826 969.701 203.351 852.686 139.701" fill="#97CFFF"/>
<path d="M1185.52 713.088H1131.4C1127.81 713.088 1124.87 716.022 1124.87 719.608L1123.56 1568.98C1123.56 1572.57 1126.49 1575.5 1130.08 1575.5L1185.52 1575.81C1250.33 1575.81 1303.36 1522.78 1303.36 1457.97V595.113C1303.36 659.927 1250.33 713.084 1185.52 713.084L1185.52 713.088Z" fill="#008AFF"/>
</svg>
