<svg width="32" height="32" viewBox="0 0 398 330" fill="none" xmlns="http://www.w3.org/2000/svg">
<path d="M112.188 82.5C115.486 82.5 118.65 81.0513 120.982 78.4727C123.315 75.8941 124.625 72.3967 124.625 68.75C124.625 65.1033 123.315 61.6059 120.982 59.0273C118.65 56.4487 115.486 55 112.188 55C108.889 55 105.725 56.4487 103.393 59.0273C101.06 61.6059 99.75 65.1033 99.75 68.75C99.75 72.3967 101.06 75.8941 103.393 78.4727C105.725 81.0513 108.889 82.5 112.188 82.5V82.5ZM74.875 68.75C74.875 72.3967 73.5646 75.8941 71.2321 78.4727C68.8997 81.0513 65.7361 82.5 62.4375 82.5C59.1389 82.5 55.9753 81.0513 53.6429 78.4727C51.3104 75.8941 50 72.3967 50 68.75C50 65.1033 51.3104 61.6059 53.6429 59.0273C55.9753 56.4487 59.1389 55 62.4375 55C65.7361 55 68.8997 56.4487 71.2321 59.0273C73.5646 61.6059 74.875 65.1033 74.875 68.75V68.75ZM124.625 261.25C124.625 264.897 123.315 268.394 120.982 270.973C118.65 273.551 115.486 275 112.188 275C108.889 275 105.725 273.551 103.393 270.973C101.06 268.394 99.75 264.897 99.75 261.25C99.75 257.603 101.06 254.106 103.393 251.527C105.725 248.949 108.889 247.5 112.188 247.5C115.486 247.5 118.65 248.949 120.982 251.527C123.315 254.106 124.625 257.603 124.625 261.25ZM62.4375 275C65.7361 275 68.8997 273.551 71.2321 270.973C73.5646 268.394 74.875 264.897 74.875 261.25C74.875 257.603 73.5646 254.106 71.2321 251.527C68.8997 248.949 65.7361 247.5 62.4375 247.5C59.1389 247.5 55.9753 248.949 53.6429 251.527C51.3104 254.106 50 257.603 50 261.25C50 264.897 51.3104 268.394 53.6429 270.973C55.9753 273.551 59.1389 275 62.4375 275Z" fill="#6cbbfe"/>
<path d="M49.75 0C36.5555 0 23.9014 5.79462 14.5714 16.1091C5.2415 26.4236 0 40.4131 0 55L0 82.5C0 97.0869 5.2415 111.076 14.5714 121.391C23.9014 131.705 36.5555 137.5 49.75 137.5H74.625V192.5H49.75C36.5555 192.5 23.9014 198.295 14.5714 208.609C5.2415 218.924 0 232.913 0 247.5L0 275C0 289.587 5.2415 303.576 14.5714 313.891C23.9014 324.205 36.5555 330 49.75 330H348.25C361.445 330 374.099 324.205 383.429 313.891C392.758 303.576 398 289.587 398 275V247.5C398 232.913 392.758 218.924 383.429 208.609C374.099 198.295 361.445 192.5 348.25 192.5H323.375V137.5H348.25C361.445 137.5 374.099 131.705 383.429 121.391C392.758 111.076 398 97.0869 398 82.5V55C398 40.4131 392.758 26.4236 383.429 16.1091C374.099 5.79462 361.445 0 348.25 0H49.75ZM373.125 55V82.5C373.125 89.7935 370.504 96.7882 365.839 101.945C361.174 107.103 354.847 110 348.25 110H49.75C43.1527 110 36.8257 107.103 32.1607 101.945C27.4958 96.7882 24.875 89.7935 24.875 82.5V55C24.875 47.7065 27.4958 40.7118 32.1607 35.5546C36.8257 30.3973 43.1527 27.5 49.75 27.5H348.25C354.847 27.5 361.174 30.3973 365.839 35.5546C370.504 40.7118 373.125 47.7065 373.125 55ZM373.125 247.5V275C373.125 282.293 370.504 289.288 365.839 294.445C361.174 299.603 354.847 302.5 348.25 302.5H49.75C43.1527 302.5 36.8257 299.603 32.1607 294.445C27.4958 289.288 24.875 282.293 24.875 275V247.5C24.875 240.207 27.4958 233.212 32.1607 228.055C36.8257 222.897 43.1527 220 49.75 220H348.25C354.847 220 361.174 222.897 365.839 228.055C370.504 233.212 373.125 240.207 373.125 247.5ZM298.5 137.5V192.5H99.5V137.5H298.5Z" fill="#6cbbfe"/>
</svg>
