<svg width="32" height="32" viewBox="0 0 2500 1992" fill="none" xmlns="http://www.w3.org/2000/svg">
<path fill-rule="evenodd" clip-rule="evenodd" d="M519.258 0C376.611 0 271.06 124.854 275.786 260.254C280.322 390.337 274.429 558.813 232.017 696.206C189.453 833.984 117.52 921.294 0 932.5V1059.02C117.52 1070.25 189.453 1157.52 232.012 1295.32C274.429 1432.71 280.317 1601.19 275.781 1731.27C271.055 1866.65 376.606 1991.52 519.277 1991.52H1980.93C2123.58 1991.52 2229.11 1866.67 2224.38 1731.27C2219.85 1601.19 2225.74 1432.71 2268.15 1295.32C2310.72 1157.52 2382.48 1070.22 2500 1059.02V932.5C2382.48 921.27 2310.72 834.004 2268.15 696.206C2225.74 558.833 2219.85 390.337 2224.38 260.254C2229.11 124.873 2123.58 0 1980.93 0H519.238H519.258ZM1694.92 1225.91C1694.92 1412.35 1555.85 1525.42 1325.06 1525.42H932.202C920.964 1525.42 910.186 1520.96 902.24 1513.01C894.293 1505.07 889.829 1494.29 889.829 1483.05V508.477C889.829 497.239 894.293 486.461 902.24 478.514C910.186 470.568 920.964 466.104 932.202 466.104H1322.83C1515.26 466.104 1641.56 570.342 1641.56 730.381C1641.56 842.71 1556.6 943.271 1448.36 960.889V966.748C1595.7 982.91 1694.92 1084.96 1694.92 1225.91ZM1282.23 600.425H1058.22V916.831H1246.89C1392.74 916.831 1473.16 858.101 1473.16 753.125C1473.14 654.746 1404 600.425 1282.23 600.425ZM1058.22 1042.37V1391.06H1290.47C1442.32 1391.06 1522.76 1330.13 1522.76 1215.62C1522.76 1101.1 1440.07 1042.35 1280.7 1042.35H1058.22V1042.37Z" fill="#6CBBFE"/>
</svg>
