<svg width="32" height="32" viewBox="0 0 1667 2500" fill="#6cbbfe" xmlns="http://www.w3.org/2000/svg">
<path d="M416.833 2500C646.833 2500 833.5 2313.33 833.5 2083.33V1666.67H416.833C186.833 1666.67 0.166504 1853.33 0.166504 2083.33C0.166504 2313.33 186.833 2500 416.833 2500Z" />
<path d="M0.166504 1250C0.166504 1020 186.833 833.333 416.833 833.333H833.5V1666.67H416.833C186.833 1666.67 0.166504 1480 0.166504 1250Z" />
<path d="M0.166504 416.667C0.166504 186.667 186.833 6.10352e-05 416.833 6.10352e-05H833.5V833.333H416.833C186.833 833.333 0.166504 646.667 0.166504 416.667Z" />
<path d="M833.5 6.10352e-05H1250.17C1480.17 6.10352e-05 1666.83 186.667 1666.83 416.667C1666.83 646.667 1480.17 833.333 1250.17 833.333H833.5V6.10352e-05Z" />
<path d="M1666.83 1250C1666.83 1480 1480.17 1666.67 1250.17 1666.67C1020.17 1666.67 833.5 1480 833.5 1250C833.5 1020 1020.17 833.333 1250.17 833.333C1480.17 833.333 1666.83 1020 1666.83 1250Z" />
</svg>
