<svg width="32" height="32" viewBox="0 0 1823 2500" fill="none" xmlns="http://www.w3.org/2000/svg">
<g filter="url(#filter0_i_850_11)">
<path d="M8.92285 1999.37L20.3522 1977.07L727.854 634.617L413.458 40.1834C387.331 -8.8881 320.976 3.62366 312.402 58.5558L8.92285 1999.37Z" fill="#6CBBFE"/>
</g>
<g filter="url(#filter1_i_850_11)">
<path d="M957.196 1061.11L1185.35 827.449L957.196 393.012C935.534 351.774 882.902 347.451 861.467 388.811L735.388 631.704L731.614 644.123L957.196 1061.11Z" fill="#6CBBFE"/>
</g>
<path d="M0 2015.5L6.85049 2008.61L31.7458 1998.5L946.643 1087L958.236 1055.44L730.005 620.531L0 2015.5Z" fill="#008AFF"/>
<path d="M1811.28 2009.54L1576.62 564.367C1569.29 519.148 1522.8 500.441 1490.44 532.863L9.18652 2012.67L823.405 2467.76C848.799 2481.94 877.398 2489.39 906.482 2489.4C935.565 2489.4 964.168 2481.97 989.569 2467.81L1811.29 2009.53L1811.28 2009.54Z" fill="#97CFFF"/>
<defs>
<filter id="filter0_i_850_11" x="8.92285" y="9.51611" width="718.932" height="1989.85" filterUnits="userSpaceOnUse" color-interpolation-filters="sRGB">
<feFlood flood-opacity="0" result="BackgroundImageFix"/>
<feBlend mode="normal" in="SourceGraphic" in2="BackgroundImageFix" result="shape"/>
<feColorMatrix in="SourceAlpha" type="matrix" values="0 0 0 0 0 0 0 0 0 0 0 0 0 0 0 0 0 0 127 0" result="hardAlpha"/>
<feOffset/>
<feGaussianBlur stdDeviation="124.619"/>
<feComposite in2="hardAlpha" operator="arithmetic" k2="-1" k3="1"/>
<feColorMatrix type="matrix" values="0 0 0 0 0 0 0 0 0 0 0 0 0 0 0 0 0 0 0.06 0"/>
<feBlend mode="normal" in2="shape" result="effect1_innerShadow_850_11"/>
</filter>
<filter id="filter1_i_850_11" x="731.614" y="310.007" width="460.855" height="751.099" filterUnits="userSpaceOnUse" color-interpolation-filters="sRGB">
<feFlood flood-opacity="0" result="BackgroundImageFix"/>
<feBlend mode="normal" in="SourceGraphic" in2="BackgroundImageFix" result="shape"/>
<feColorMatrix in="SourceAlpha" type="matrix" values="0 0 0 0 0 0 0 0 0 0 0 0 0 0 0 0 0 0 127 0" result="hardAlpha"/>
<feOffset dx="7.12109" dy="-64.0898"/>
<feGaussianBlur stdDeviation="24.9238"/>
<feComposite in2="hardAlpha" operator="arithmetic" k2="-1" k3="1"/>
<feColorMatrix type="matrix" values="0 0 0 0 0 0 0 0 0 0 0 0 0 0 0 0 0 0 0.09 0"/>
<feBlend mode="normal" in2="shape" result="effect1_innerShadow_850_11"/>
</filter>
</defs>
</svg>
