<svg width="32" height="32" viewBox="0 0 76 73" fill="currentColor" xmlns="http://www.w3.org/2000/svg">
<path fill-rule="evenodd" clip-rule="evenodd" d="M72.381 67.5122C72.381 68.5251 71.5613 69.35 70.5642 69.35H5.43584C4.42974 69.35 3.61908 68.5324 3.61908 67.5122V27.375V20.075V18.25H9.04765H19.9048H25.3334H30.7619H53.4896H72.381V27.375V67.5122ZM5.43584 3.65H9.04765H19.9048H25.3334H30.7619H70.5642C71.5649 3.65 72.3719 4.46212 72.3792 5.475C72.3792 5.47865 72.381 5.4823 72.381 5.48778V14.6H30.7619H25.3334H19.9048H9.04765H3.61908V5.48778C3.61908 5.4823 3.62089 5.47865 3.62089 5.475C3.62813 4.46942 4.44241 3.65 5.43584 3.65ZM70.5642 0C73.5626 0 75.991 2.44367 75.9982 5.475C75.9982 5.47865 76 5.48413 76 5.48778V67.5122C76 70.5436 73.5572 73 70.5642 73H5.43584C2.43384 73 3.05176e-05 70.549 3.05176e-05 67.5122L0.00093528 5.48139C0.00726861 3.09702 1.52365 1.09318 3.61908 0.337625C4.18908 0.1314 4.79527 0 5.43584 0H70.5642ZM41.6187 25.9026C41.3328 26.1015 41.0813 26.3588 40.9456 26.7092L40.6886 27.3754L34.5815 43.1105L29.0769 57.3017C28.7114 58.2398 29.171 59.2983 30.1029 59.6651C31.0348 60.0319 32.0843 59.5684 32.4481 58.6321L34.5815 53.1279L41.6187 34.9893L44.3149 28.0397C44.4 27.8207 44.4307 27.5962 44.4307 27.3754C44.4307 26.6454 44.0055 25.9555 43.2907 25.6745C42.708 25.4445 42.0982 25.5686 41.6187 25.9026ZM22.4461 31.5594L19.9055 34.1217L13.498 40.5822C12.7905 41.2957 12.7905 42.451 13.498 43.1627L19.9055 49.625L22.4461 52.1892C23.1536 52.9009 24.2972 52.9009 25.0048 52.1892C25.7123 51.4756 25.7123 50.3185 25.0048 49.6086L19.9055 44.4639L17.336 41.8724L19.9055 39.2828L25.0048 34.1399C25.7123 33.4263 25.7123 32.2729 25.0048 31.5594C24.2972 30.8458 23.1536 30.8458 22.4461 31.5594ZM51.1969 31.5594C50.4894 32.2729 50.4894 33.4263 51.1969 34.1399L53.4896 36.4522L58.8638 41.8724L53.4896 47.2963L51.1969 49.6086C50.4894 50.3185 50.4894 51.4756 51.1969 52.1892C51.8248 52.8206 52.7838 52.8608 53.4896 52.3662C53.5764 52.306 53.6759 52.2695 53.7556 52.1892L62.7036 43.1627C63.4112 42.451 63.4112 41.2957 62.7036 40.5822L53.7556 31.5594C53.6759 31.4809 53.5764 31.4426 53.4896 31.3805C52.7838 30.8896 51.8248 30.9243 51.1969 31.5594ZM9.04765 7.29963C8.04698 7.29963 7.23813 8.11541 7.23813 9.12464C7.23813 10.1339 8.04698 10.9496 9.04765 10.9496C10.0483 10.9496 10.8572 10.1339 10.8572 9.12464C10.8572 8.11541 10.0483 7.29963 9.04765 7.29963ZM14.4762 7.29963C13.4756 7.29963 12.6667 8.11541 12.6667 9.12464C12.6667 10.1339 13.4756 10.9496 14.4762 10.9496C15.4769 10.9496 16.2857 10.1339 16.2857 9.12464C16.2857 8.11541 15.4769 7.29963 14.4762 7.29963ZM19.9048 7.29963C18.9041 7.29963 18.0953 8.11541 18.0953 9.12464C18.0953 10.1339 18.9041 10.9496 19.9048 10.9496C20.9055 10.9496 21.7143 10.1339 21.7143 9.12464C21.7143 8.11541 20.9055 7.29963 19.9048 7.29963Z" fill="#6cbbfe"/>
</svg>
