<svg width="32" height="32" viewBox="0 0 1154 1564" fill="none" xmlns="http://www.w3.org/2000/svg">
<path fill-rule="evenodd" clip-rule="evenodd" d="M371.341 1209.11C371.341 1209.11 311.628 1243.85 413.881 1255.59C537.795 1269.74 601.087 1267.7 737.594 1241.88C737.594 1241.88 773.533 1264.38 823.7 1283.85C517.601 1415.01 130.946 1276.26 371.341 1209.11ZM333.923 1037.94C333.923 1037.94 266.934 1087.53 369.278 1098.11C501.648 1111.78 606.132 1112.9 787.047 1078.09C787.047 1078.09 812.027 1103.44 851.339 1117.29C481.298 1225.53 69.171 1125.81 333.923 1037.94Z" fill="#6cbbfe"/>
<path fill-rule="evenodd" clip-rule="evenodd" d="M649.217 747.564C724.675 834.423 629.439 912.54 629.439 912.54C629.439 912.54 820.95 813.697 732.989 689.875C650.865 574.457 587.87 517.118 928.859 319.38C928.846 319.368 393.596 453.008 649.217 747.564Z" fill="#6cbbfe"/>
<path fill-rule="evenodd" clip-rule="evenodd" d="M1054.04 1335.72C1054.04 1335.72 1098.24 1372.16 1005.35 1400.35C828.719 1453.85 270.047 1469.98 114.863 1402.47C59.1194 1378.19 163.708 1344.54 196.612 1337.43C230.93 1330.01 250.514 1331.36 250.514 1331.36C188.48 1287.68 -150.459 1417.15 78.3795 1454.3C702.381 1555.48 1215.88 1408.75 1054.04 1335.72ZM400.069 860.583C400.069 860.583 115.927 928.09 299.462 952.629C376.982 962.992 531.4 960.606 675.352 948.531C792.962 938.661 911.012 917.546 911.012 917.546C911.012 917.546 869.574 935.327 839.549 955.794C550.959 1031.71 -6.45574 996.35 154.032 918.752C289.722 853.112 400.069 860.583 400.069 860.583ZM909.832 1145.49C1203.17 993.095 1067.54 846.614 972.852 866.354C949.701 871.192 939.312 875.368 939.312 875.368C939.312 875.368 947.95 861.854 964.37 856.043C1151.67 790.222 1295.68 1050.23 903.983 1153.19C903.97 1153.19 908.483 1149.12 909.832 1145.49Z" fill="#6cbbfe"/>
<path fill-rule="evenodd" clip-rule="evenodd" d="M732.989 0C732.989 0 895.41 162.524 578.896 412.361C325.064 612.847 521.025 727.124 578.818 857.742C430.625 724.063 321.926 606.362 394.842 496.846C501.894 336.085 798.525 258.124 732.989 0Z" fill="#6cbbfe"/>
<path fill-rule="evenodd" clip-rule="evenodd" d="M428.926 1558.58C710.448 1576.58 1142.85 1548.58 1153.11 1415.34C1153.11 1415.34 1133.42 1465.84 920.416 1505.91C680.099 1551.14 383.649 1545.88 207.883 1516.87C207.883 1516.87 243.9 1546.67 428.926 1558.58Z" fill="#6cbbfe"/>
</svg>
