<svg width="32" height="32" viewBox="0 0 2414 2486" fill="none" xmlns="http://www.w3.org/2000/svg">
<path d="M2412.34 562.393C2413.23 565.706 2413.69 569.121 2413.7 572.553V1105.91C2413.7 1112.75 2411.89 1119.48 2408.46 1125.4C2405.03 1131.32 2400.1 1136.24 2394.16 1139.64L1946.51 1397.37V1908.22C1946.51 1922.12 1939.12 1934.96 1927.06 1941.96L992.624 2479.88C990.485 2481.09 988.152 2481.87 985.819 2482.7C984.944 2482.99 984.117 2483.52 983.194 2483.77C976.661 2485.49 969.795 2485.49 963.263 2483.77C962.194 2483.48 961.222 2482.89 960.201 2482.5C958.062 2481.73 955.826 2481.05 953.784 2479.88L19.5414 1941.96C13.6064 1938.55 8.67504 1933.63 5.24431 1927.71C1.81358 1921.79 0.00470254 1915.06 0 1908.22L0 308.161C0 304.661 0.486104 301.258 1.36109 297.953C1.65275 296.835 2.3333 295.814 2.72218 294.696C3.45134 292.654 4.13188 290.564 5.20131 288.668C5.93047 287.404 6.9999 286.384 7.87488 285.217C8.99292 283.661 10.0137 282.057 11.3262 280.696C12.4443 279.578 13.9026 278.752 15.1664 277.779C16.5761 276.613 17.84 275.349 19.4442 274.425H19.4928L486.639 5.46409C492.553 2.06042 499.258 0.269043 506.083 0.269043C512.907 0.269043 519.612 2.06042 525.527 5.46409L992.673 274.425H992.77C994.325 275.398 995.638 276.613 997.048 277.731C998.311 278.703 999.721 279.578 1000.84 280.647C1002.2 282.057 1003.17 283.661 1004.34 285.217C1005.17 286.384 1006.28 287.404 1006.96 288.668C1008.08 290.613 1008.71 292.654 1009.49 294.696C1009.88 295.814 1010.56 296.835 1010.85 298.001C1011.75 301.314 1012.21 304.73 1012.21 308.161V1307.54L1401.49 1083.4V572.504C1401.49 569.102 1401.97 565.65 1402.85 562.393C1403.19 561.227 1403.82 560.206 1404.21 559.088C1404.99 557.046 1405.67 554.956 1406.74 553.06C1407.46 551.796 1408.53 550.775 1409.36 549.609C1410.53 548.053 1411.5 546.449 1412.86 545.088C1413.98 543.97 1415.39 543.144 1416.65 542.171C1418.11 541.005 1419.37 539.741 1420.93 538.817H1420.98L1888.17 269.856C1894.09 266.448 1900.79 264.653 1907.62 264.653C1914.44 264.653 1921.15 266.448 1927.06 269.856L2394.21 538.817C2395.86 539.789 2397.12 541.005 2398.58 542.123C2399.8 543.095 2401.21 543.97 2402.32 545.039C2403.69 546.449 2404.66 548.053 2405.82 549.609C2406.7 550.775 2407.77 551.796 2408.45 553.06C2409.57 554.956 2410.2 557.046 2410.98 559.088C2411.42 560.206 2412.05 561.227 2412.34 562.393ZM2335.83 1083.4V639.878L2172.35 733.988L1946.51 864.021V1307.54L2335.87 1083.4H2335.83ZM1868.68 1885.71V1441.9L1646.53 1568.77L1012.17 1930.82V2378.82L1868.68 1885.71ZM77.8738 375.486V1885.71L934.292 2378.77V1930.87L486.882 1677.66L486.736 1677.56L486.541 1677.47C485.034 1676.59 483.771 1675.33 482.361 1674.26C481.146 1673.29 479.736 1672.51 478.666 1671.44L478.569 1671.29C477.305 1670.08 476.43 1668.57 475.361 1667.21C474.389 1665.9 473.222 1664.78 472.444 1663.42L472.396 1663.27C471.521 1661.81 470.986 1660.06 470.354 1658.41C469.722 1656.95 468.896 1655.59 468.507 1654.04V1653.99C468.021 1652.14 467.924 1650.2 467.729 1648.3C467.535 1646.84 467.146 1645.38 467.146 1643.93V599.629L241.351 469.547L77.8738 375.535V375.486ZM506.131 84.1157L116.908 308.161L506.034 532.206L895.209 308.112L506.034 84.1157H506.131ZM708.545 1482.34L934.34 1352.36V375.486L770.863 469.596L545.02 599.629V1576.5L708.545 1482.34ZM1907.62 348.508L1518.44 572.553L1907.62 796.598L2296.74 572.504L1907.62 348.508ZM1868.68 864.021L1642.84 733.988L1479.36 639.878V1083.4L1705.15 1213.38L1868.68 1307.54V864.021ZM973.18 1863.5L1544.01 1537.61L1829.35 1374.77L1440.47 1150.87L992.721 1408.65L584.637 1643.59L973.18 1863.5Z" fill="#6CBBFE"/>
</svg>
