<svg width="32" height="32" viewBox="0 0 1345 687" fill="none" xmlns="http://www.w3.org/2000/svg">
<path d="M332.64 21.5153C337.503 13.2443 343.825 5.29894 352.91 1.40239C356.639 0.75647 360.367 1.08206 364.096 1.08206H547.669C542.318 5.61927 537.13 10.3245 533.564 16.4844C524.159 31.8921 517.831 49.0799 511.996 66.2678C495.454 118.167 483.938 171.516 472.747 224.871C467.703 249.041 462.893 273.26 458.316 297.524C444.369 376.663 429.938 455.633 411.936 533.958C403.345 570.124 394.585 606.286 381.289 641.15C375.124 655.586 369.127 670.988 357.29 681.69C354.533 684.127 351.776 687.204 347.879 686.721H185.716C174.688 686.396 163.823 687.367 152.795 686.233C160.094 680.561 166.58 673.745 170.797 665.637C182.959 642.447 190.579 617.313 197.878 592.338C209.232 552.123 218.306 511.419 226.908 470.715C232.259 443.959 238.582 417.361 242.473 390.442C246.853 360.441 253.501 330.765 258.852 300.927C267.286 256.978 276.203 213.034 286.097 169.411C294.042 135.355 302.15 101.457 313.015 68.216C318.372 52.1625 324.201 36.2717 332.64 21.5153V21.5153Z" fill="#6CBBFE" stroke="#6CBBFE" stroke-width="0.14954"/>
<path d="M547.67 1.08212C552.37 1.08212 557.07 0.919325 561.776 1.08212C572.152 6.59609 580.912 15.3502 585.775 26.2153C592.26 38.5404 597.617 51.5166 602.474 64.8132C618.696 114.922 629.724 166.491 640.752 217.897C650.152 263.952 659.079 310.169 667.507 356.55C668.159 358.981 667.35 362.389 670.59 363.035C658.911 424.009 647.4 485.146 632.806 545.637C624.856 578.233 616.422 610.665 604.428 642.126C597.937 657.854 591.289 675.042 577.504 686.238C568.75 688.181 562.422 681.533 557.076 675.531C547.833 663.694 542.151 649.746 536.637 635.798C518.31 585.858 507.124 533.8 495.776 481.906C487.179 441.523 479.554 400.824 471.609 360.283C468.038 339.682 463.181 319.412 460.424 298.821C459.935 298.495 458.796 297.844 458.312 297.524C462.889 273.26 467.699 249.041 472.743 224.871C483.934 171.516 495.45 118.162 511.992 66.2731C517.827 49.08 524.155 31.8921 533.56 16.4897C537.131 10.3246 542.314 5.61933 547.665 1.08212H547.67Z" fill="#008AFF" stroke="#008AFF" stroke-width="0.14954"/>
<path d="M750.532 29.1347C756.377 17.9492 763.509 5.46139 776.159 1.24451C840.542 0.91892 904.924 1.08171 969.301 1.08171C963.298 7.07882 956.976 13.0812 952.916 20.701C940.434 43.0825 933.134 67.8953 925.677 92.3826C906.541 159.842 893.082 228.762 880.268 297.681C868.432 365.634 855.781 433.577 841.35 501.205C833.893 535.255 826.105 569.147 816.217 602.714C809.889 623.473 803.246 644.395 792.864 663.694C787.833 672.448 781.994 682.021 772.431 686.558C710.968 687.047 649.343 686.558 587.886 686.716C584.478 686.716 580.912 686.716 577.504 686.233C591.289 675.047 597.937 657.854 604.428 642.121C616.427 610.665 624.856 578.232 632.806 545.637C647.4 485.146 658.911 424.014 670.59 363.035C684.696 284.385 699.457 205.734 718.268 128.055C727.022 94.4885 735.456 60.4331 750.538 29.1347H750.532Z" fill="#6CBBFE" stroke="#6CBBFE" stroke-width="0.14954"/>
<path d="M969.301 1.08212C974.49 1.08212 979.841 0.919325 985.029 1.08212C993.463 5.46179 999.465 12.9188 1004.82 20.5386C1013.57 34.4863 1019.08 50.2195 1024.76 65.6219C1038.22 106.977 1048.28 149.466 1057.52 191.95C1069.84 249.195 1080.55 306.766 1091.09 364.332C1093.68 378.117 1096.27 392.06 1097.9 406.013L1100.33 408.444C1094.49 416.552 1092.22 426.283 1088.98 435.526C1078.76 468.447 1072.11 502.502 1066.44 536.395C1062.06 562.988 1056.06 589.423 1047.79 615.045C1041.63 634.018 1034.17 652.829 1021.85 668.72C1016 676.345 1008.06 682.179 999.303 686.07C985.843 687.53 977.893 674.559 971.407 664.991C957.948 641.475 950.654 615.208 942.866 589.581C917.244 494.714 900.539 397.579 882.543 301.09C882.48 300.376 882.239 299.69 881.842 299.095C881.445 298.499 880.904 298.013 880.269 297.682C893.082 228.762 906.542 159.843 925.678 92.3831C933.135 67.8958 940.434 43.0829 952.922 20.7014C956.976 13.0816 963.299 7.07922 969.301 1.08212V1.08212ZM1 370.009C5.22213 369.684 9.43901 369.038 13.8134 369.038H190.576C198.033 370.009 205.821 369.363 212.957 372.609C223.408 376.904 232.529 383.9 239.388 392.879C240.201 392.391 241.661 391.094 242.47 390.442C238.579 417.361 232.256 443.954 226.905 470.715C218.308 511.419 209.229 552.123 197.875 592.338C190.576 617.314 182.956 642.447 170.794 665.637C166.577 673.745 160.091 680.556 152.792 686.233C150.035 686.721 147.929 684.773 145.655 683.313C138.035 678.45 133.656 670.017 128.956 662.397C106.737 611.8 104.306 555.851 90.5207 502.985C83.5468 476.555 74.9503 450.282 62.3049 425.958C54.5171 411.359 44.9543 397.416 32.4664 386.225C23.2239 378.768 12.5163 372.766 1.00525 370.009H1Z" fill="#008AFF" stroke="#008AFF" stroke-width="0.14954"/>
<path d="M1114.6 386.876C1124.82 375.36 1140.06 368.066 1155.47 368.712H1288.45C1306.93 369.037 1325.58 368.066 1344.07 369.2C1338.56 372.929 1331.91 374.388 1326.07 377.471C1305.8 386.713 1288.45 402.116 1277.42 421.415C1259.74 452.23 1253.58 487.582 1248.39 522.284C1243.2 556.339 1243.36 591.529 1232.34 624.613C1224.88 647.803 1213.53 671.151 1193.9 686.395C1132.93 687.047 1071.95 686.558 1011.14 686.721C1007.09 686.721 1003.2 686.879 999.305 686.07C1008.06 682.184 1016 676.344 1021.84 668.719C1034.17 652.828 1041.63 634.018 1047.79 615.045C1056.06 589.418 1062.06 562.987 1066.44 536.394C1072.12 502.502 1078.76 468.441 1088.98 435.525C1092.22 426.283 1094.5 416.552 1100.33 408.444C1105.2 401.307 1108.44 393.036 1114.6 386.876V386.876Z" fill="#6CBBFE" stroke="#6CBBFE" stroke-width="0.14954"/>
</svg>
