<svg width="32" height="32" viewBox="0 0 16 16" fill="none" xmlns="http://www.w3.org/2000/svg">
<path d="M11.5 6.02686C11.5 6.15946 11.4473 6.28664 11.3536 6.38041C11.2598 6.47418 11.1326 6.52686 11 6.52686C10.8674 6.52686 10.7402 6.47418 10.6464 6.38041C10.5527 6.28664 10.5 6.15946 10.5 6.02686C10.5 5.89425 10.5527 5.76707 10.6464 5.6733C10.7402 5.57953 10.8674 5.52686 11 5.52686C11.1326 5.52686 11.2598 5.57953 11.3536 5.6733C11.4473 5.76707 11.5 5.89425 11.5 6.02686V6.02686ZM10 7.52686C10.1326 7.52686 10.2598 7.47418 10.3536 7.38041C10.4473 7.28664 10.5 7.15946 10.5 7.02686C10.5 6.89425 10.4473 6.76707 10.3536 6.6733C10.2598 6.57953 10.1326 6.52686 10 6.52686C9.86739 6.52686 9.74021 6.57953 9.64645 6.6733C9.55268 6.76707 9.5 6.89425 9.5 7.02686C9.5 7.15946 9.55268 7.28664 9.64645 7.38041C9.74021 7.47418 9.86739 7.52686 10 7.52686ZM12.5 7.02686C12.5 7.15946 12.4473 7.28664 12.3536 7.38041C12.2598 7.47418 12.1326 7.52686 12 7.52686C11.8674 7.52686 11.7402 7.47418 11.6464 7.38041C11.5527 7.28664 11.5 7.15946 11.5 7.02686C11.5 6.89425 11.5527 6.76707 11.6464 6.6733C11.7402 6.57953 11.8674 6.52686 12 6.52686C12.1326 6.52686 12.2598 6.57953 12.3536 6.6733C12.4473 6.76707 12.5 6.89425 12.5 7.02686V7.02686ZM11 8.52686C11.1326 8.52686 11.2598 8.47418 11.3536 8.38041C11.4473 8.28664 11.5 8.15946 11.5 8.02686C11.5 7.89425 11.4473 7.76707 11.3536 7.6733C11.2598 7.57953 11.1326 7.52686 11 7.52686C10.8674 7.52686 10.7402 7.57953 10.6464 7.6733C10.5527 7.76707 10.5 7.89425 10.5 8.02686C10.5 8.15946 10.5527 8.28664 10.6464 8.38041C10.7402 8.47418 10.8674 8.52686 11 8.52686ZM4.5 5.52686H5.5V6.52686H6.5V7.52686H5.5V8.52686H4.5V7.52686H3.5V6.52686H4.5V5.52686Z" fill="#6CBBFE"/>
<path d="M3.05061 3.25977C3.03353 3.19628 3.02914 3.13004 3.03769 3.06485C3.04624 2.99965 3.06757 2.93679 3.10045 2.87985C3.13334 2.82291 3.17713 2.77301 3.22932 2.73302C3.28151 2.69302 3.34107 2.66372 3.40461 2.64677L5.33661 2.12877C5.40302 2.11107 5.47238 2.10726 5.54034 2.11757C5.6083 2.12787 5.6734 2.15208 5.73158 2.18868C5.78977 2.22528 5.83978 2.27348 5.87849 2.33028C5.91721 2.38707 5.9438 2.45124 5.95661 2.51877C6.61161 2.43977 7.30661 2.40177 7.99961 2.40177C8.71961 2.40177 9.44261 2.44277 10.1196 2.52777C10.1313 2.45922 10.1572 2.39385 10.1955 2.33586C10.2339 2.27786 10.284 2.22851 10.3425 2.19096C10.4011 2.15341 10.4668 2.12849 10.5355 2.11778C10.6042 2.10707 10.6744 2.11082 10.7416 2.12877L12.6736 2.64677C12.7473 2.66651 12.8155 2.70286 12.8731 2.75303C12.9306 2.80321 12.9758 2.86588 13.0053 2.93625C13.0349 3.00662 13.0479 3.08281 13.0435 3.159C13.039 3.23518 13.0172 3.30933 12.9796 3.37577C13.1196 3.46577 13.2456 3.56577 13.3526 3.67277C13.7606 4.08077 14.1326 4.72277 14.4476 5.44477C14.7676 6.17777 15.0466 7.03577 15.2526 7.91077C15.4586 8.78577 15.5926 9.69077 15.6166 10.5168C15.6406 11.3328 15.5576 12.1188 15.2886 12.7268C15.1659 12.9997 14.9602 13.227 14.7007 13.376C14.4412 13.5251 14.1412 13.5883 13.8436 13.5568C13.2076 13.4898 12.7286 13.1628 12.3306 12.7838C12.0856 12.5518 11.8346 12.2578 11.5916 11.9758C11.4656 11.8278 11.3416 11.6838 11.2236 11.5528C10.4956 10.7488 9.62661 10.0258 7.99961 10.0258C6.37261 10.0258 5.50361 10.7488 4.77561 11.5528C4.65661 11.6838 4.53361 11.8278 4.40761 11.9758C4.16461 12.2578 3.91361 12.5508 3.66861 12.7838C3.27061 13.1638 2.79161 13.4898 2.15561 13.5568C1.85801 13.5883 1.55805 13.5251 1.29855 13.376C1.03905 13.227 0.833278 12.9997 0.710606 12.7268C0.440606 12.1188 0.358606 11.3318 0.381606 10.5168C0.405606 9.69077 0.541606 8.78677 0.746606 7.91077C0.952606 7.03577 1.23261 6.17777 1.55161 5.44477C1.86661 4.72277 2.23861 4.08077 2.64561 3.67277C2.77633 3.54455 2.92166 3.43211 3.07861 3.33777C3.0671 3.31226 3.05773 3.28584 3.05061 3.25877V3.25977ZM5.08661 3.67177C4.20961 3.85677 3.61761 4.11477 3.35361 4.37977C3.07761 4.65577 2.76661 5.16277 2.46861 5.84477C2.15247 6.58636 1.90217 7.35432 1.72061 8.13977C1.5288 8.92868 1.41525 9.73458 1.38161 10.5458C1.35961 11.3008 1.44361 11.9138 1.62461 12.3218C1.66167 12.4012 1.72268 12.4671 1.79908 12.5102C1.87548 12.5532 1.96343 12.5712 2.05061 12.5618C2.37761 12.5278 2.66061 12.3628 2.97961 12.0598C3.19161 11.8578 3.37961 11.6368 3.59461 11.3858C3.72761 11.2298 3.87061 11.0628 4.03461 10.8818C4.86061 9.96877 5.97761 9.02677 7.99961 9.02677C10.0216 9.02677 11.1386 9.96877 11.9646 10.8818C12.1286 11.0628 12.2716 11.2298 12.4046 11.3858C12.6186 11.6368 12.8076 11.8578 13.0196 12.0598C13.3376 12.3628 13.6206 12.5278 13.9486 12.5628C14.0359 12.5722 14.1239 12.554 14.2003 12.5107C14.2767 12.4675 14.3377 12.4014 14.3746 12.3218C14.5546 11.9138 14.6396 11.3018 14.6176 10.5458C14.5839 9.73458 14.4704 8.92869 14.2786 8.13977C14.097 7.35433 13.8467 6.58637 13.5306 5.84477C13.2326 5.16277 12.9206 4.65477 12.6456 4.37977C12.3816 4.11477 11.7896 3.85677 10.9126 3.67177C10.0626 3.49277 9.03561 3.40177 7.99961 3.40177C6.96361 3.40177 5.93661 3.49277 5.08661 3.67177V3.67177Z" fill="#6CBBFE"/>
</svg>
