<svg width="1440" height="376" viewBox="0 0 1440 376" fill="none" xmlns="http://www.w3.org/2000/svg">
<path d="M-9 151.85L51.6225 135.004C112.245 117.842 233.49 84.6247 354.735 75.925C475.98 67.2252 597.225 84.6247 718.471 92.7708C839.716 101.233 960.961 101.233 1082.21 84.3874C1203.45 67.2252 1324.7 34.0081 1385.32 16.8459L1445.94 0V227.775H1385.32C1324.7 227.775 1203.45 227.775 1082.21 227.775C960.961 227.775 839.716 227.775 718.471 227.775C597.225 227.775 475.98 227.775 354.735 227.775C233.49 227.775 112.245 227.775 51.6225 227.775H-9V151.85Z" fill="#81D389"/>
<path d="M-6 16.3279L54.625 31.9662C115.25 47.8981 236.5 78.7341 357.75 98.5573C479 118.38 600.25 125.722 721.5 110.304C842.75 94.8863 964 55.24 1085.25 51.5691C1206.5 47.8981 1327.75 78.7341 1388.38 94.6661L1449 110.304V227.775H1388.38C1327.75 227.775 1206.5 227.775 1085.25 227.775C964 227.775 842.75 227.775 721.5 227.775C600.25 227.775 479 227.775 357.75 227.775C236.5 227.775 115.25 227.775 54.625 227.775H-6V16.3279Z" fill="#519BDA" fill-opacity="0.33"/>
<path d="M-9 223.693L51.6225 240.539C112.245 257.701 233.49 290.918 354.735 299.618C475.98 308.317 597.225 290.918 718.471 282.772C839.716 274.309 960.961 274.309 1082.21 291.155C1203.45 308.317 1324.7 341.535 1385.32 358.697L1445.94 375.543V147.768H1385.32C1324.7 147.768 1203.45 147.768 1082.21 147.768C960.961 147.768 839.716 147.768 718.471 147.768C597.225 147.768 475.98 147.768 354.735 147.768C233.49 147.768 112.245 147.768 51.6225 147.768H-9V223.693Z" fill="#81D389"/>
<path d="M-6 359.215L54.625 343.577C115.25 327.645 236.5 296.809 357.75 276.986C479 257.162 600.25 249.82 721.5 265.238C842.75 280.656 964 320.303 1085.25 323.974C1206.5 327.645 1327.75 296.809 1388.38 280.877L1449 265.238V147.768H1388.38C1327.75 147.768 1206.5 147.768 1085.25 147.768C964 147.768 842.75 147.768 721.5 147.768C600.25 147.768 479 147.768 357.75 147.768C236.5 147.768 115.25 147.768 54.625 147.768H-6V359.215Z" fill="#519BDA" fill-opacity="0.33"/>
</svg>
