<svg width="1440" height="326" viewBox="0 0 1440 326" fill="none" xmlns="http://www.w3.org/2000/svg">
<path d="M715.5 203.335C409.399 203.335 140.804 185.947 -10 160V249H1441V160C1290.2 185.947 1021.6 203.335 715.5 203.335Z" fill="white"/>
<path d="M2 224L62 202.7C122 181 242 139 362 128C482 117 602 139 722 149.3C842 160 962 160 1082 138.7C1202 117 1322 75 1382 53.3L1442 32V320H1382C1322 320 1202 320 1082 320C962 320 842 320 722 320C602 320 482 320 362 320C242 320 122 320 62 320H2V224Z" fill="white" fill-opacity="0.21"/>
<g clip-path="url(#clip0_358_2)">
<path d="M-10 38L51.1299 59.3C112.26 81 234.52 123 356.78 150C479.039 177 601.299 187 723.559 166C845.819 145 968.079 91 1090.34 86C1212.6 81 1334.86 123 1395.99 144.7L1457.12 166V326H1395.99C1334.86 326 1212.6 326 1090.34 326C968.079 326 845.819 326 723.559 326C601.299 326 479.039 326 356.78 326C234.52 326 112.26 326 51.1299 326H-10V38Z" fill="white" fill-opacity="0.2"/>
</g>
<defs>
<clipPath id="clip0_358_2">
<rect width="1450" height="320" fill="white" transform="translate(-10 6)"/>
</clipPath>
</defs>
</svg>
